<svg xmlns="http://www.w3.org/2000/svg" width="19" height="20" viewBox="0 0 19 20">
    <g fill="none" fill-rule="evenodd">
        <g fill-rule="nonzero">
            <g>
                <path fill="#808285" d="M0 2.968v1.548h1.613l1.28 14.545c.035.4.37.707.772.707h11.07c.402 0 .737-.307.772-.707l1.28-14.544h1.64l-.001-1.55H0z" transform="translate(-435 -227) translate(435 227)"/>
                <path fill="#FFF" d="M14.026 18.22L4.374 18.22 3.168 4.517 15.232 4.517z" transform="translate(-435 -227) translate(435 227)"/>
                <path fill="#808285" d="M12.981 6.815L11.433 6.759 11.097 15.92 12.645 15.977zM8.438 6.788L9.987 6.788 9.987 15.949 8.438 15.949zM7.328 15.92L6.993 6.758 5.446 6.815 5.781 15.976zM6.684 0c-.711 0-1.29.58-1.29 1.29v2.452h1.548V1.548h4.542v2.194h1.548V1.29c0-.71-.578-1.29-1.29-1.29H6.684z" transform="translate(-435 -227) translate(435 227)"/>
            </g>
        </g>
    </g>
</svg>
